# xmcd
#
# Track frame offsets:
#	150
#	18234
#	37598
#	51992
#	73462
#	91614
#	111916
#	140707
#	159352
#	177635
#	195922
#	213992
#	242132
#	259746
#	279371
#	282977
#	309211
#
# Disc length: 4348 seconds
#
# Revision: 1
# Processed by: cddbd v1.5.1PL0 Copyright (c) Steve Scherf et al.
# Submitted via: dBpowerAMP V4.0
#
DISCID=ed10fa11
DTITLE=Roger Clyne and The Peacemakers - Live at Billy Bob's Texas
DYEAR=2005
DGENRE=Rock
TTITLE0=Counterclockwise
TTITLE1=Banditos 
TTITLE2=I Don't Need Another Thrill
TTITLE3=Bury My Heart at the Trailer Park
TTITLE4=A Little Hungover You
TTITLE5=Leaky Little Boat
TTITLE6=Switchblade
TTITLE7=Mexico
TTITLE8=Blue Collar Suicide
TTITLE9=Wanted
TTITLE10=Tell Yer Momma
TTITLE11=Green and Dumb
TTITLE12=Americano
TTITLE13=Girly
TTITLE14=King of the Hill
TTITLE15=Buffalo
TTITLE16=A Little Hungover You - Texas Studio Mix
EXTD=
EXTT0=
EXTT1=
EXTT2=
EXTT3=
EXTT4=
EXTT5=
EXTT6=
EXTT7=
EXTT8=
EXTT9=
EXTT10=
EXTT11=
EXTT12=
EXTT13=
EXTT14=
EXTT15=
EXTT16=
PLAYORDER=
